{
    "asset" : {
        "generator" : "Khronos glTF Blender I/O v1.7.33",
        "version" : "2.0"
    },
    "scene" : 0,
    "scenes" : [
        {
            "name" : "Scene",
            "nodes" : [
                0,
                1,
                2,
                3,
                4
            ]
        }
    ],
    "nodes" : [
        {
            "mesh" : 0,
            "name" : "Danbooru",
            "scale" : [
                1,
                1,
                1.5208230018615723
            ],
            "translation" : [
                0,
                3.8158926963806152,
                0
            ]
        },
        {
            "mesh" : 1,
            "name" : "Tisch",
            "scale" : [
                1.1239138841629028,
                0.09794401377439499,
                3.4622676372528076
            ],
            "translation" : [
                3.202399969100952,
                2.222438335418701,
                0
            ]
        },
        {
            "mesh" : 2,
            "name" : "Macbook",
            "scale" : [
                0.7965673208236694,
                0.05182753503322601,
                0.9126615524291992
            ],
            "translation" : [
                3.190927267074585,
                2.3478333950042725,
                0
            ]
        },
        {
            "mesh" : 3,
            "name" : "Lampenfu\u00df",
            "scale" : [
                0.6158545017242432,
                0.6158545017242432,
                0.6158545017242432
            ],
            "translation" : [
                3.709221363067627,
                2.6580095291137695,
                -2.4953246116638184
            ]
        },
        {
            "mesh" : 4,
            "name" : "Lampenschirm",
            "scale" : [
                0.784361720085144,
                0.6310837864875793,
                0.7018299102783203
            ],
            "translation" : [
                3.6968636512756348,
                3.7640771865844727,
                -2.5030062198638916
            ]
        }
    ],
    "materials" : [
        {
            "doubleSided" : true,
            "name" : "Material",
            "pbrMetallicRoughness" : {
                "baseColorTexture" : {
                    "index" : 0
                },
                "metallicFactor" : 0,
                "roughnessFactor" : 0.8121212124824524
            }
        },
        {
            "doubleSided" : true,
            "name" : "Tisch",
            "pbrMetallicRoughness" : {
                "baseColorTexture" : {
                    "index" : 1
                },
                "metallicFactor" : 0,
                "roughnessFactor" : 0.5
            }
        },
        {
            "doubleSided" : true,
            "name" : "Macbook Material",
            "pbrMetallicRoughness" : {
                "baseColorTexture" : {
                    "index" : 2
                },
                "metallicFactor" : 0,
                "roughnessFactor" : 0.5
            }
        },
        {
            "doubleSided" : true,
            "name" : "Material.003",
            "pbrMetallicRoughness" : {
                "baseColorTexture" : {
                    "index" : 3
                },
                "metallicFactor" : 0,
                "roughnessFactor" : 0.5
            }
        },
        {
            "doubleSided" : true,
            "emissiveFactor" : [
                0.2999998927116394,
                0.20551646750573838,
                0.1403331791162863
            ],
            "name" : "Lampenschirm",
            "pbrMetallicRoughness" : {
                "baseColorFactor" : [
                    0.2501075565814972,
                    0.18363353610038757,
                    0.09935574233531952,
                    1
                ],
                "metallicFactor" : 0,
                "roughnessFactor" : 0.5
            }
        }
    ],
    "meshes" : [
        {
            "name" : "Cube",
            "primitives" : [
                {
                    "attributes" : {
                        "POSITION" : 0,
                        "NORMAL" : 1,
                        "TEXCOORD_0" : 2
                    },
                    "indices" : 3,
                    "material" : 0
                }
            ]
        },
        {
            "name" : "Cube.002",
            "primitives" : [
                {
                    "attributes" : {
                        "POSITION" : 4,
                        "NORMAL" : 5,
                        "TEXCOORD_0" : 6
                    },
                    "indices" : 7,
                    "material" : 1
                }
            ]
        },
        {
            "name" : "Cube.003",
            "primitives" : [
                {
                    "attributes" : {
                        "POSITION" : 8,
                        "NORMAL" : 9,
                        "TEXCOORD_0" : 10
                    },
                    "indices" : 11,
                    "material" : 2
                }
            ]
        },
        {
            "name" : "Icosphere.001",
            "primitives" : [
                {
                    "attributes" : {
                        "POSITION" : 12,
                        "NORMAL" : 13,
                        "TEXCOORD_0" : 14
                    },
                    "indices" : 15,
                    "material" : 3
                }
            ]
        },
        {
            "name" : "Cylinder",
            "primitives" : [
                {
                    "attributes" : {
                        "POSITION" : 16,
                        "NORMAL" : 17,
                        "TEXCOORD_0" : 18
                    },
                    "indices" : 19,
                    "material" : 4
                }
            ]
        }
    ],
    "textures" : [
        {
            "sampler" : 0,
            "source" : 0
        },
        {
            "sampler" : 0,
            "source" : 1
        },
        {
            "sampler" : 0,
            "source" : 2
        },
        {
            "sampler" : 0,
            "source" : 3
        }
    ],
    "images" : [
        {
            "bufferView" : 4,
            "mimeType" : "image/jpeg",
            "name" : "danbooru bake2"
        },
        {
            "bufferView" : 9,
            "mimeType" : "image/jpeg",
            "name" : "tisch burnt"
        },
        {
            "bufferView" : 14,
            "mimeType" : "image/jpeg",
            "name" : "Maxbook"
        },
        {
            "bufferView" : 19,
            "mimeType" : "image/png",
            "name" : "Lampe burnt"
        }
    ],
    "accessors" : [
        {
            "bufferView" : 0,
            "componentType" : 5126,
            "count" : 187,
            "max" : [
                0.9063679575920105,
                1,
                0.9161217212677002
            ],
            "min" : [
                -0.9140691161155701,
                -3.666487455368042,
                -0.9143978953361511
            ],
            "type" : "VEC3"
        },
        {
            "bufferView" : 1,
            "componentType" : 5126,
            "count" : 187,
            "type" : "VEC3"
        },
        {
            "bufferView" : 2,
            "componentType" : 5126,
            "count" : 187,
            "type" : "VEC2"
        },
        {
            "bufferView" : 3,
            "componentType" : 5123,
            "count" : 342,
            "type" : "SCALAR"
        },
        {
            "bufferView" : 5,
            "componentType" : 5126,
            "count" : 90,
            "max" : [
                1.003641128540039,
                1,
                1
            ],
            "min" : [
                -1.0076204538345337,
                -21.384517669677734,
                -1
            ],
            "type" : "VEC3"
        },
        {
            "bufferView" : 6,
            "componentType" : 5126,
            "count" : 90,
            "type" : "VEC3"
        },
        {
            "bufferView" : 7,
            "componentType" : 5126,
            "count" : 90,
            "type" : "VEC2"
        },
        {
            "bufferView" : 8,
            "componentType" : 5123,
            "count" : 138,
            "type" : "SCALAR"
        },
        {
            "bufferView" : 10,
            "componentType" : 5126,
            "count" : 40,
            "max" : [
                1.7937368154525757,
                22.449811935424805,
                1.000000238418579
            ],
            "min" : [
                -1,
                -0.6599653363227844,
                -1.000000238418579
            ],
            "type" : "VEC3"
        },
        {
            "bufferView" : 11,
            "componentType" : 5126,
            "count" : 40,
            "type" : "VEC3"
        },
        {
            "bufferView" : 12,
            "componentType" : 5126,
            "count" : 40,
            "type" : "VEC2"
        },
        {
            "bufferView" : 13,
            "componentType" : 5123,
            "count" : 60,
            "type" : "SCALAR"
        },
        {
            "bufferView" : 15,
            "componentType" : 5126,
            "count" : 240,
            "max" : [
                0.8939945101737976,
                0.940000057220459,
                0.940000057220459
            ],
            "min" : [
                -0.8939945101737976,
                -0.940000057220459,
                -0.940000057220459
            ],
            "type" : "VEC3"
        },
        {
            "bufferView" : 16,
            "componentType" : 5126,
            "count" : 240,
            "type" : "VEC3"
        },
        {
            "bufferView" : 17,
            "componentType" : 5126,
            "count" : 240,
            "type" : "VEC2"
        },
        {
            "bufferView" : 18,
            "componentType" : 5123,
            "count" : 240,
            "type" : "SCALAR"
        },
        {
            "bufferView" : 20,
            "componentType" : 5126,
            "count" : 392,
            "max" : [
                0.9999999403953552,
                1.000000238418579,
                1
            ],
            "min" : [
                -0.9999999403953552,
                -0.9999999403953552,
                -1
            ],
            "type" : "VEC3"
        },
        {
            "bufferView" : 21,
            "componentType" : 5126,
            "count" : 392,
            "type" : "VEC3"
        },
        {
            "bufferView" : 22,
            "componentType" : 5126,
            "count" : 392,
            "type" : "VEC2"
        },
        {
            "bufferView" : 23,
            "componentType" : 5123,
            "count" : 768,
            "type" : "SCALAR"
        }
    ],
    "bufferViews" : [
        {
            "buffer" : 0,
            "byteLength" : 2244,
            "byteOffset" : 0
        },
        {
            "buffer" : 0,
            "byteLength" : 2244,
            "byteOffset" : 2244
        },
        {
            "buffer" : 0,
            "byteLength" : 1496,
            "byteOffset" : 4488
        },
        {
            "buffer" : 0,
            "byteLength" : 684,
            "byteOffset" : 5984
        },
        {
            "buffer" : 0,
            "byteLength" : 32040,
            "byteOffset" : 6668
        },
        {
            "buffer" : 0,
            "byteLength" : 1080,
            "byteOffset" : 38708
        },
        {
            "buffer" : 0,
            "byteLength" : 1080,
            "byteOffset" : 39788
        },
        {
            "buffer" : 0,
            "byteLength" : 720,
            "byteOffset" : 40868
        },
        {
            "buffer" : 0,
            "byteLength" : 276,
            "byteOffset" : 41588
        },
        {
            "buffer" : 0,
            "byteLength" : 24694,
            "byteOffset" : 41864
        },
        {
            "buffer" : 0,
            "byteLength" : 480,
            "byteOffset" : 66560
        },
        {
            "buffer" : 0,
            "byteLength" : 480,
            "byteOffset" : 67040
        },
        {
            "buffer" : 0,
            "byteLength" : 320,
            "byteOffset" : 67520
        },
        {
            "buffer" : 0,
            "byteLength" : 120,
            "byteOffset" : 67840
        },
        {
            "buffer" : 0,
            "byteLength" : 105023,
            "byteOffset" : 67960
        },
        {
            "buffer" : 0,
            "byteLength" : 2880,
            "byteOffset" : 172984
        },
        {
            "buffer" : 0,
            "byteLength" : 2880,
            "byteOffset" : 175864
        },
        {
            "buffer" : 0,
            "byteLength" : 1920,
            "byteOffset" : 178744
        },
        {
            "buffer" : 0,
            "byteLength" : 480,
            "byteOffset" : 180664
        },
        {
            "buffer" : 0,
            "byteLength" : 103508,
            "byteOffset" : 181144
        },
        {
            "buffer" : 0,
            "byteLength" : 4704,
            "byteOffset" : 284652
        },
        {
            "buffer" : 0,
            "byteLength" : 4704,
            "byteOffset" : 289356
        },
        {
            "buffer" : 0,
            "byteLength" : 3136,
            "byteOffset" : 294060
        },
        {
            "buffer" : 0,
            "byteLength" : 1536,
            "byteOffset" : 297196
        }
    ],
    "samplers" : [
        {
            "magFilter" : 9729,
            "minFilter" : 9987
        }
    ],
    "buffers" : [
        {
            "byteLength" : 298732,
            "uri" : "data:application/octet-stream;base64,"
        }
    ]
}
